PathFileType	4	(X/Y/Z)	./resultDataOpenSim/trcMotMarkerGrf/sub09/qtm-03-05.trc
DataRate	CameraRate	NumFrames	NumMarkers	Units	OrigDataRate	OrigDataStartFrame	OrigNumFrames
250.000000	250.000000	5	24	m	250.000000	1	466
Frame#	Time	L.Toe.Tip			R.Toe.Tip			L.Ankle.Lat			R.Ankle.Lat			L.Ankle.Med			R.Ankle.Med			L.Heel			R.Heel			L.Knee.Lat			R.Knee.Lat			L.Knee.Med			R.Knee.Med			L.Thigh.Upper			R.Thigh.Upper			L.ASIS			R.ASIS			V.Sacral			L.Acromium			R.Acromium			C7			L.Elbow			R.Elbow			L.Wrist.Lat			R.Wrist.Lat
		X1	Y1	Z1	X2	Y2	Z2	X3	Y3	Z3	X4	Y4	Z4	X5	Y5	Z5	X6	Y6	Z6	X7	Y7	Z7	X8	Y8	Z8	X9	Y9	Z9	X10	Y10	Z10	X11	Y11	Z11	X12	Y12	Z12	X13	Y13	Z13	X14	Y14	Z14	X15	Y15	Z15	X16	Y16	Z16	X17	Y17	Z17	X18	Y18	Z18	X19	Y19	Z19	X20	Y20	Z20	X21	Y21	Z21	X22	Y22	Z22	X23	Y23	Z23	X24	Y24	Z24

1	0	-1.537759	0.036839649	0.0027487619	-1.0094881	0.088831098	0.099887972	-1.6864026	0.077287898	-0.023763413	-1.1595893	0.069823453	0.12650712	-1.6572597	0.096142899	0.067836045	-1.1509678	0.11161216	0.036806929	NaN	NaN	NaN	-1.2107857	0.032633535	0.069931319	-1.5541558	0.47087042	-0.09695534	-1.2144281	0.5263891	0.17748439	-1.5502829	0.47380435	0.029886117	-1.217179	0.50731337	0.05037568	-1.4471344	0.87807798	-0.15155184	-1.4199649	0.87791621	0.21775613	-1.3421656	0.95182397	-0.098149225	-1.3386491	0.96039372	0.14219428	-1.5035579	1.0189711	0.030009068	-1.3212319	1.4140919	-0.13810003	-1.3508743	1.4206561	0.18705659	-1.3971371	1.4664546	0.014441733	-1.395236	1.0457258	-0.22356489	NaN	NaN	NaN	-1.1350082	0.96009409	-0.20139167	-1.4321789	0.84497943	0.29484813
2	0.004	-1.5377025	0.036727957	0.0027442786	-0.99279337	0.092328908	0.099573795	-1.686098	0.077865527	-0.023712947	-1.1427482	0.069938154	0.12571435	-1.6567626	0.096616548	0.067823437	-1.1342434	0.11233994	0.036361491	NaN	NaN	NaN	-1.1927784	0.03171656	0.068962276	-1.5514765	0.47070938	-0.09709546	-1.2091332	0.52482139	0.17758584	-1.5475611	0.47371345	0.029750711	-1.2108453	0.50590484	0.050318596	-1.4417755	0.87693688	-0.15137371	-1.4143823	0.87637969	0.21787997	-1.3365642	0.95037417	-0.098212495	-1.332825	0.95873862	0.14222624	-1.4981876	1.0173734	0.029791779	-1.3156632	1.4128869	-0.13796501	-1.3453868	1.4192442	0.18726072	-1.3921232	1.4653468	0.014883751	-1.3882819	1.0442321	-0.22362845	NaN	NaN	NaN	-1.1273501	0.96080198	-0.2010482	-1.4269449	0.84360742	0.2953033
3	0.008	-1.5376501	0.036640614	0.0027329555	-0.97623954	0.095998109	0.099365991	-1.6858176	0.078447846	-0.023692827	-1.1261433	0.070147551	0.12494591	-1.6562102	0.097094952	0.067774277	-1.1178596	0.1131056	0.035894394	NaN	NaN	NaN	-1.1750047	0.030924393	0.067982967	-1.5486858	0.47052074	-0.097241441	-1.2038334	0.52323049	0.17761713	-1.5447971	0.47360541	0.029641323	-1.2045293	0.50449905	0.050227788	-1.4363422	0.87578197	-0.15119526	-1.4087565	0.87481407	0.21798726	-1.3309575	0.94894949	-0.098277612	-1.3269813	0.95713936	0.14226296	-1.4926162	1.0157775	0.02967878	-1.3100553	1.4116602	-0.13784086	-1.3398547	1.4178337	0.18742613	-1.3868772	1.464184	0.015552983	-1.3813342	1.0427196	-0.22368964	NaN	NaN	NaN	-1.1197371	0.96143785	-0.20074017	-1.4216487	0.84221289	0.29576226
4	0.012	-1.5375972	0.03658264	0.00272311	-0.95998264	0.099911731	0.09933192	-1.6855905	0.07903817	-0.023707216	-1.1098994	0.070514145	0.12421365	-1.6555999	0.097579211	0.067679046	-1.1020254	0.11393204	0.035390671	NaN	NaN	NaN	-1.1576029	0.030336292	0.067017103	-1.545723	0.47029636	-0.097402204	-1.1985184	0.52159753	0.17756376	-1.5418788	0.47347529	0.029553947	-1.1982245	0.5030947	0.050078205	-1.4308317	0.87461741	-0.15102067	-1.4030413	0.87321162	0.21807483	-1.3253233	0.94754793	-0.098347491	-1.3210732	0.95558797	0.14229705	-1.4867889	1.0142057	0.029728512	-1.3043826	1.4103992	-0.13772271	-1.334278	1.4164168	0.18755519	-1.3813177	1.4630119	0.016763047	-1.3743902	1.04119	-0.22374284	NaN	NaN	NaN	-1.1121768	0.96196675	-0.20046618	-1.4162481	0.84079035	0.29622197
5	0.016	-1.5375348	0.03654122	0.0027278421	-0.94423095	0.1039729	0.099446556	-1.6854411	0.079636036	-0.023739516	-1.0940579	0.071058798	0.12353314	-1.6549778	0.098068666	0.067547561	-1.0867488	0.11484506	0.034871114	NaN	NaN	NaN	-1.1406567	0.02997796	0.066110144	-1.5425723	0.47003845	-0.097571896	-1.1931877	0.51992425	0.17744246	-1.5387476	0.47332286	0.029466986	-1.191922	0.50170193	0.049851201	-1.4253133	0.87345618	-0.15084443	-1.3972092	0.87157612	0.21815062	-1.3196393	0.94615527	-0.098415064	-1.315082	0.95405667	0.14231882	-1.4808053	1.0126723	0.029907051	-1.2986525	1.4091079	-0.13759548	-1.3286718	1.4149873	0.18767604	-1.3755323	1.4618859	0.018530675	-1.3674598	1.03966	-0.22378093	NaN	NaN	NaN	-1.1046659	0.96238456	-0.20020019	-1.4107512	0.83934288	0.29668116
